<?xml version="1.0" encoding="UTF-8" standalone="no"?>
<svg
   xmlns:dc="http://purl.org/dc/elements/1.1/"
   xmlns:cc="http://creativecommons.org/ns#"
   xmlns:rdf="http://www.w3.org/1999/02/22-rdf-syntax-ns#"
   xmlns:svg="http://www.w3.org/2000/svg"
   xmlns="http://www.w3.org/2000/svg"
   version="1.1"
   id="svg2"
   viewBox="0 0 183.92607 208.03668"
   height="58.712574mm"
   width="51.908024mm">
  <defs
     id="defs4" />
  <metadata
     id="metadata7">
    <rdf:RDF>
      <cc:Work
         rdf:about="">
        <dc:format>image/svg+xml</dc:format>
        <dc:type
           rdf:resource="http://purl.org/dc/dcmitype/StillImage" />
        <dc:title></dc:title>
      </cc:Work>
    </rdf:RDF>
  </metadata>
  <g
     transform="translate(-247.67074,-431.2141)"
     id="layer1">
    <g
       transform="matrix(2.0388421,0,0,2.0388421,-444.57375,-647.76988)"
       id="g6287">
      <path
         id="path6347"
         d="m 343.62293,628.30139 c -3.12545,-2.79258 -3.26578,-3.23304 -3.26578,-10.25 l 0,-7.33203 15.75,-21.87489 15.75,-21.87489 -0.004,-14.12511 c -0.003,-12.35213 -0.25431,-14.53608 -2,-17.39928 -3.79838,-6.22991 -3.8082,-6.22583 14.97899,-6.22583 l 16.97525,0 -1.03309,2.71723 c -0.5682,1.49448 -1.56956,3.36274 -2.22525,4.15169 -0.76128,0.91602 -1.31666,6.63234 -1.53663,15.81599 l -0.34447,14.38153 12.79893,17.71678 c 20.47261,28.339 19.39001,26.44721 19.39001,33.88301 0,13.55292 0.73854,13.33377 -44.93456,13.33377 l -37.03389,0 -3.26577,-2.91797 z"
         style="fill:#f9e8e8" />
      <path
         id="path6345"
         d="m 346.85715,630.51313 c -3.00617,-1.09892 -5.98412,-4.69218 -6.59723,-7.96038 -1.53346,-8.17402 -0.15391,-11.04336 16.12147,-33.53113 l 15.41737,-21.30226 0.023,-14.5 c 0.018,-11.33321 -0.32282,-15.1552 -1.56055,-17.5 -3.55243,-6.72982 -4.05285,-6.5 14.15333,-6.5 18.21133,0 17.84136,-0.16651 14.44258,6.5 -1.71102,3.35606 -2,5.89718 -2,17.58655 l 0,13.66367 15.70039,21.82117 c 19.1207,26.5749 21.68368,36.4454 10.65946,41.05162 -3.32223,1.38811 -72.72964,1.99781 -76.35985,0.67076 z"
         style="fill:#e6e6e6" />
      <path
         id="path6343"
         d="m 345.21024,628.31271 c -9.70225,-5.9768 -7.60745,-13.3446 11.17115,-39.29109 l 15.41737,-21.30226 0.0292,-15.28984 c 0.0256,-13.40343 -0.22007,-15.77843 -1.99113,-19.25 l -2.02033,-3.96016 16.52033,0 c 9.08617,0 16.52032,0.22663 16.52032,0.50362 0,0.277 -0.9,2.18283 -2,4.2352 -1.739,3.24459 -2,5.64208 -2,18.37148 l 0,14.63992 15.75,21.87489 15.75,21.87489 0,6.72727 c 0,6.01804 -0.29221,7.01959 -2.77171,9.5 l -2.77171,2.77273 -37.22829,0.26596 c -35.34335,0.25248 -37.38762,0.1678 -40.3752,-1.67261 z"
         style="fill:#f5d3d2" />
      <path
         id="path6341"
         d="m 345.15797,628.28092 c -9.47319,-5.83447 -7.20209,-13.60908 11.54065,-39.50687 l 15.15853,-20.94532 0,-15.34452 c 0,-13.42254 -0.25306,-15.84056 -2.02032,-19.30469 l -2.02033,-3.96016 16.48894,0 c 18.13468,0 17.18824,-0.40967 13.86156,6 -0.89141,1.71751 -1.29946,7.13361 -1.30369,17.30399 l -0.006,14.80399 14.62986,20.19601 c 19.10895,26.37923 21.20761,32.31135 13.98667,39.53505 l -2.65995,2.66096 -37.22829,0.26596 c -35.54588,0.25393 -37.37287,0.17691 -40.42747,-1.7044 z"
         style="fill:#d3d2d2" />
      <path
         id="path6339"
         d="m 345.85715,627.94673 c -10.23952,-5.09171 -8.10891,-12.8939 10.5933,-38.79212 l 15.4067,-21.3347 -0.004,-16.05027 c -0.003,-14.23643 -0.22767,-16.41756 -1.9853,-19.30028 l -1.98156,-3.25 16.50562,0 16.50563,0 -2.02033,3.96016 c -1.76318,3.45613 -2.02032,5.88295 -2.02032,19.06741 l 0,15.10724 14.18775,19.58941 c 20.65276,28.51583 23.11538,37.18564 11.69341,41.16736 -4.71575,1.64392 -73.5406,1.49691 -76.88116,-0.16421 z"
         style="fill:#f5c0be" />
      <path
         id="path6337"
         d="m 345.85715,627.94071 c -10.53245,-5.26273 -8.35862,-12.5009 12.33978,-41.08752 l 13.66022,-18.86616 -0.004,-16.13384 c -0.003,-14.31972 -0.22655,-16.49926 -1.9853,-19.38383 l -1.98156,-3.25 16.50562,0 16.50563,0 -2.02033,3.96016 c -1.76323,3.45622 -2.02032,5.88294 -2.02032,19.07002 l 0,15.10986 14.96969,20.78515 c 18.13448,25.17942 19.51372,28.37175 15.56069,36.01605 -2.56968,4.96923 -72.64797,8.21836 -81.53038,3.78011 z"
         style="fill:#ecb2b1" />
      <path
         id="path6335"
         d="m 346.21415,628.22778 c -10.8726,-4.38764 -8.45322,-12.83012 11.64891,-40.64904 l 14.99409,-20.75001 -0.022,-14.05468 c -0.0185,-11.83563 -0.33427,-14.74295 -2,-18.41389 -1.08792,-2.39757 -1.97804,-4.53507 -1.97804,-4.75 0,-0.21494 7.2367,-0.3908 16.08156,-0.3908 l 16.08156,0 -2.08156,3.36803 c -1.88047,3.04266 -2.08122,4.90236 -2.07801,19.25 l 0.004,15.88197 15.36072,21.19636 c 14.53833,20.06155 16.63217,23.83554 16.63217,29.9783 0,3.95471 -2.70288,8.02611 -6.11884,9.21692 -3.83033,1.33526 -73.24229,1.44124 -76.52416,0.11684 z"
         style="fill:#d7b2b2" />
      <path
         id="path6333"
         d="m 347.15196,628.13598 c -12.08792,-3.58499 -9.83154,-12.1287 10.7111,-40.55724 l 14.99409,-20.75001 -0.022,-14.05468 c -0.0185,-11.83563 -0.33427,-14.74295 -2,-18.41389 -1.08792,-2.39757 -1.97804,-4.53507 -1.97804,-4.75 0,-0.21494 7.2367,-0.3908 16.08156,-0.3908 l 16.08156,0 -2.08156,3.36803 c -1.88047,3.04266 -2.08122,4.90236 -2.07801,19.25 l 0.004,15.88197 15.44446,21.31196 c 18.58857,25.65055 20.45732,31.43131 12.16376,37.62719 -3.07589,2.29792 -70.22757,3.58108 -77.32052,1.47747 z"
         style="fill:#f49d9c" />
      <path
         id="path6331"
         d="m 347.15196,628.13598 c -4.57259,-1.35612 -6.29481,-4.36643 -6.29481,-11.00286 l 0,-5.64123 16,-22.27253 16,-22.27253 0,-14.65229 c 0,-12.39975 -0.29089,-15.22287 -1.8922,-18.36374 l -1.8922,-3.71144 15.41788,0 15.41788,0 -1.52568,2.95034 c -1.17992,2.28172 -1.52568,6.55412 -1.52568,18.8523 l 0,15.90195 11.14664,15.39771 c 6.13066,8.46873 13.08699,18.04456 15.45851,21.2796 6.53006,8.9078 6.93339,17.6322 1.0194,22.05037 -3.08439,2.30426 -70.22002,3.59293 -77.32974,1.48435 z"
         style="fill:#dd9191" />
      <path
         id="path6329"
         d="m 345.22123,627.04977 c -9.15379,-4.43234 -6.75585,-12.22846 11.63592,-37.83041 l 16,-22.27253 0,-14.65229 c 0,-12.39975 -0.29089,-15.22287 -1.8922,-18.36374 l -1.8922,-3.71144 15.41788,0 15.41788,0 -1.52568,2.95034 c -1.18058,2.283 -1.52568,6.55994 -1.52568,18.90841 l 0,15.95806 15.15292,20.8416 c 18.14834,24.96154 20.56714,32.2217 12.59527,37.80541 -2.67065,1.87059 -75.58263,2.2073 -79.38411,0.36659 z"
         style="fill:#eb8885" />
      <path
         id="path6327"
         d="m 345.17833,627.03063 c -10.40484,-5.03033 -6.94209,-12.75336 25.33019,-56.49455 2.91065,-3.94503 3.55641,-31.57996 0.84863,-36.31672 -0.78602,-1.375 -1.44508,-2.8375 -1.46457,-3.25 -0.0195,-0.4125 6.72613,-0.75 14.99025,-0.75 l 15.02568,0 -1.77568,3.25 c -1.52029,2.78256 -1.74202,5.50476 -1.54166,18.92682 l 0.23402,15.67682 14.31226,19.82318 c 16.93677,23.45825 15.77599,21.64998 16.81266,26.19113 1.06832,4.67981 -0.50541,10.6071 -3.34415,12.59544 -2.69488,1.88756 -75.5826,2.2068 -79.42763,0.34788 z"
         style="fill:#f27d7a" />
      <path
         id="path6325"
         d="m 345.17833,627.03063 c -9.39274,-4.54102 -5.00284,-16.714 15.25857,-42.31127 1.7414,-2.2 5.24834,-7.06594 7.79321,-10.81321 l 4.62704,-6.81321 0,-14.93679 0,-14.93679 11.75,0.007 11.75,0.007 0.2603,15.45632 0.26029,15.45632 14.28598,19.78681 c 16.90733,23.41752 15.74981,21.61398 16.78639,26.15476 1.06832,4.67982 -0.50541,10.6071 -3.34415,12.59545 -2.69488,1.88756 -75.5826,2.2068 -79.42763,0.34788 z"
         style="fill:#ea807d" />
      <path
         id="path6323"
         d="m 343.66295,625.17901 c -6.05562,-6.05563 -4.37914,-11.54657 9.15327,-29.97942 6.25061,-8.51413 13.31689,-18.26691 15.70284,-21.67286 l 4.33809,-6.19263 0,-15.05737 0,-15.05737 11.75,-0.002 11.75,-10e-4 -0.2862,14.75149 -0.28621,14.7515 15.02005,20.78555 c 19.30618,26.71693 21.1937,31.66401 14.59781,38.2599 l -2.45454,2.45455 -38.12238,0 -38.12238,0 -3.04035,-3.04035 z"
         style="fill:#f17876" />
      <path
         id="path6321"
         d="m 343.78023,625.29628 c -6.56948,-6.56947 -4.71961,-11.58434 13.20586,-35.80023 3.75508,-5.07282 8.86224,-12.13451 11.34924,-15.69263 l 4.52182,-6.46932 0,-12.55737 0,-12.55737 11.5,0 11.5,0 0,12.38999 0,12.38999 4.69991,6.36001 c 23.49259,31.79065 27.30009,37.84031 27.30009,43.37659 0,11.79307 1.18721,11.48342 -44.02726,11.48342 l -37.12659,0 -2.92307,-2.92308 z"
         style="fill:#f17471" />
      <path
         id="path6319"
         d="m 343.78023,625.29628 c -3.21262,-3.21262 -4.05666,-10.04715 -1.77744,-14.39266 1.54961,-2.95444 15.31549,-22.0466 20.1207,-27.90578 l 3.8722,-4.72151 7.82226,6.47151 c 7.30621,6.04458 10.0392,7.59011 10.0392,5.67727 0,-0.43684 -3.825,-3.62721 -8.5,-7.08971 -9.85604,-7.29978 -9.29089,-6.10618 -5.5,-11.61604 2.82059,-4.09958 3,-4.93267 3,-13.93017 l 0,-9.56983 11.5,0 11.5,0 0,9.38999 0,9.38999 4.69991,6.36001 c 23.49259,31.79065 27.30009,37.84031 27.30009,43.37659 0,11.79307 1.18721,11.48342 -44.02726,11.48342 l -37.12659,0 -2.92307,-2.92308 z"
         style="fill:#f0706e" />
      <path
         id="path6317"
         d="m 343.78023,625.29628 c -6.29955,-6.29954 -4.91695,-10.64635 9.79977,-30.80982 l 10.38818,-14.2329 7.90444,6.53951 c 6.84751,5.66508 8.17724,6.39352 9.94449,5.44772 3.09842,-1.65823 2.65449,-2.32227 -5.70996,-8.54109 -4.2625,-3.16909 -8.14807,-6.11918 -8.6346,-6.55576 -0.49104,-0.44063 0.51,-2.69015 2.25,-5.05619 2.83755,-3.85847 3.1346,-4.95445 3.1346,-11.56539 l 0,-7.303 11.5,0 11.5,0 0,6.7685 c 0,7.6793 -2.0075,4.16418 19.25,33.7067 l 12.75,17.71927 -0.0318,5.65276 c -0.0634,11.27157 0.40506,11.15277 -43.97938,11.15277 l -37.14267,0 -2.92307,-2.92308 z"
         style="fill:#f06c6a" />
      <path
         id="path6315"
         d="m 343.78023,625.29628 c -3.23354,-3.23353 -4.05261,-10.54974 -1.63765,-14.62803 1.54967,-2.617 14.88375,-21.02125 18.01098,-24.85949 l 2.37143,-2.91059 7.39015,6.09864 7.39015,6.09865 3.77593,-2.12219 c 4.82742,-2.71316 4.99892,-2.31601 -3.78001,-8.75391 -4.12498,-3.025 -8.19401,-6.02274 -9.0423,-6.66164 -1.35139,-1.01782 -1.16223,-1.68634 1.52796,-5.40003 2.4224,-3.34404 3.07028,-5.26182 3.07028,-9.08837 l 0,-4.84996 11.5,0 11.5,0 0,4.39081 c 0,3.35896 0.76376,5.45408 3.25,8.91533 1.7875,2.48849 7.75,10.75012 13.25,18.35919 16.04074,22.19184 15.50409,21.24163 15.4682,27.38842 -0.0644,11.03467 0.2908,10.94625 -43.97938,10.94625 l -37.14267,0 -2.92307,-2.92308 z"
         style="fill:#f06865" />
      <path
         id="path6313"
         d="m 346.16545,627.20976 c -8.57305,-3.45324 -7.25663,-12.07453 4.28147,-28.03947 4.90062,-6.78086 9.21244,-12.77576 9.5818,-13.322 0.38651,-0.5716 3.06557,0.88813 6.31157,3.43895 9.96032,7.82719 8.90355,7.50328 13.99182,4.28865 5.66024,-3.57598 6.04862,-2.66024 -4.52908,-10.67872 l -8.99959,-6.82218 3.02685,-3.82172 c 1.89922,-2.39796 3.02686,-4.97887 3.02686,-6.92781 l 0,-3.1061 11.5,0 11.5,0 0.0242,2.75 c 0.0138,1.57105 1.50413,4.67919 3.4762,7.25 4.38761,5.71974 22.12334,30.20838 25.74955,35.55375 3.99666,5.89145 3.92223,13.42787 -0.17308,17.52317 l -2.92307,2.92308 -36.82693,-0.0634 c -20.25481,-0.0349 -37.81319,-0.46065 -39.01862,-0.94621 z"
         style="fill:#f06663" />
      <path
         id="path6311"
         d="m 346.16545,627.20976 c -3.75789,-1.51369 -5.61387,-5.45849 -5.09733,-10.83419 0.65011,-6.76584 17.08959,-30.03663 19.67982,-27.85763 0.88506,0.74456 3.95769,3.29059 6.82805,5.65784 l 5.21884,4.3041 6.02241,-3.88026 c 7.43374,-4.78958 7.64809,-3.79802 -2.46009,-11.38026 -9.50701,-7.13129 -9.46373,-7.04771 -6,-11.58889 1.375,-1.80271 2.5,-3.75769 2.5,-4.34439 0,-0.69379 4.02046,-1.06672 11.5,-1.06672 6.68958,0 11.5,0.40202 11.5,0.96109 0,0.52859 2.00738,3.42561 4.46085,6.43781 4.13482,5.07644 18.42577,24.76518 24.79109,34.15485 3.99451,5.89243 3.91924,13.42892 -0.17502,17.52317 l -2.92307,2.92308 -36.82693,-0.0634 c -20.25481,-0.0349 -37.81319,-0.46065 -39.01862,-0.94621 z"
         style="fill:#ee6361" />
      <path
         id="path6309"
         d="m 346.16545,627.20976 c -8.23111,-3.31551 -7.18636,-12.01918 3.15431,-26.27811 9.62462,-13.27155 8.59458,-12.75223 14.82981,-7.47673 7.6923,6.50829 7.18024,6.45002 14.26389,1.62297 7.91258,-5.39192 8.07012,-4.47452 -2.05631,-11.97457 -9.1318,-6.76339 -9.40956,-7.2139 -6.55644,-10.63396 3.02109,-3.6214 27.03751,-3.45403 29.43509,0.20513 0.88476,1.35033 2.45069,3.26283 3.47984,4.25 1.92113,1.84278 20.14151,26.95337 20.14151,27.75821 0,0.24631 1.125,2.10562 2.5,4.1318 3.70239,5.45577 3.52059,12.53812 -0.42308,16.48178 l -2.92307,2.92308 -36.82693,-0.0634 c -20.25481,-0.0349 -37.81319,-0.46065 -39.01862,-0.94621 z"
         style="fill:#d96c6a" />
      <path
         id="path6307"
         d="m 345.87686,626.93491 c -7.77373,-3.93331 -6.70419,-12.01126 3.4429,-26.00326 9.62462,-13.27155 8.59458,-12.75223 14.82981,-7.47673 7.61264,6.44089 7.1216,6.38114 14.25361,1.73445 8.01138,-5.21962 8.12412,-4.55362 -2.04603,-12.08605 -9.1318,-6.76339 -9.40956,-7.2139 -6.55644,-10.63396 2.96207,-3.55065 27.0331,-3.46076 29.37255,0.10969 0.85037,1.29783 2.19951,3.01307 2.99809,3.81166 1.74585,1.74584 23.03726,31.74833 24.59215,34.65366 2.23688,4.17964 1.35239,11.07009 -1.82943,14.25191 l -2.92307,2.92308 -36.82693,-0.0147 c -27.5301,-0.011 -37.45306,-0.33156 -39.30721,-1.26971 z"
         style="fill:#ee615e" />
      <path
         id="path6305"
         d="m 342.26147,623.83063 c -0.89909,-2.34301 12.67583,-13.09239 36.09568,-28.58257 2.75,-1.81889 5.45,-3.82518 6,-4.45843 1.59158,-1.83249 18.52159,-13.88669 18.90155,-13.45794 7.7454,8.73983 24.59845,35.29734 24.59845,38.76291 0,4.76976 -0.85622,4.47257 -14.031,-4.87003 -6.85795,-4.86316 -15.47777,-10.95745 -19.15516,-13.54285 l -6.68617,-4.70073 -21.31383,15.41757 c -25.56608,18.49347 -23.68991,17.30733 -24.40952,15.43207 z"
         style="fill:#e95e5b" />
      <path
         id="path6303"
         d="m 341.85715,622.78099 c 0,-0.7911 7.7625,-7.00599 17.25,-13.81086 20.76669,-14.89484 24.22055,-17.40036 35.34098,-25.63728 4.74223,-3.51259 8.91177,-5.95287 9.26563,-5.42286 0.35387,0.53001 5.32073,7.60545 11.03748,15.72319 l 10.39409,14.75954 -3.0245,3.0245 -3.02449,3.02449 -7.3696,-5.01063 c -4.05327,-2.75584 -11.16526,-7.73602 -15.8044,-11.06707 l -8.43482,-6.05645 -6.56518,4.67863 c -3.61086,2.57325 -13.54019,9.74304 -22.06519,15.93287 -16.15272,11.72817 -17,12.21969 -17,9.86193 z"
         style="fill:#e35c59" />
      <path
         id="path6301"
         d="m 341.85715,622.48714 c 0,-0.49439 7.7625,-6.47338 17.25,-13.28665 9.4875,-6.81327 23.25266,-16.83906 30.58923,-22.27955 l 13.33924,-9.89179 1.66076,2.31796 c 0.91343,1.27487 4.67584,6.64599 8.36092,11.93582 l 6.70015,9.61786 -4.20015,4.08295 -4.20015,4.08295 -11.88528,-8.42367 c -14.51778,-10.28943 -9.99884,-11.17321 -34.90442,6.82634 -22.47586,16.24356 -22.7103,16.39859 -22.7103,15.01778 z"
         style="fill:#de5b58" />
      <path
         id="path6299"
         d="m 344.47229,620.04028 c 4.4315,-3.34735 5.29011,-3.61415 1.92386,-0.59782 -1.67145,1.4977 -3.43719,2.7352 -3.92386,2.75 -0.48667,0.0148 0.41333,-0.95369 2,-2.15218 z m 8.80389,-6.17853 c 1.60547,-1.3679 5.65547,-4.35116 9,-6.62947 3.34454,-2.27832 4.7674,-3.02321 3.16194,-1.65531 -1.60547,1.3679 -5.65547,4.35116 -9,6.62947 -3.34454,2.27832 -4.76741,3.02321 -3.16194,1.65531 z m 44.0337,-14.92266 c -11.90108,-8.38234 -11.29628,-8.08303 -13.24654,-6.55582 -1.53114,1.19901 -1.56759,1.15921 -0.35524,-0.38801 0.74303,-0.94826 5.41287,-4.64967 10.37744,-8.22537 l 9.02649,-6.50126 4.70396,6.72537 c 9.03851,12.92256 8.69393,11.15759 3.22921,16.54014 l -4.78259,4.71067 -8.95273,-6.30572 z m -28.211,3.69816 c 0.35776,-0.57887 3.48723,-3.00323 6.95437,-5.38747 3.46715,-2.38423 5.6289,-3.66677 4.8039,-2.85007 -2.32239,2.299 -12.49073,9.42268 -11.75827,8.23754 z"
         style="fill:#db5856" />
      <path
         id="path6297"
         d="m 391.65617,594.83483 -6.70097,-4.34173 9.12641,-6.61302 9.12641,-6.61302 3.32456,4.9367 c 4.19051,6.22255 4.28844,5.63202 -1.95688,11.79976 -6.28886,6.21075 -4.76801,6.11289 -12.91953,0.83131 z"
         style="fill:#d45653" />
      <path
         id="path6295"
         d="m 386.27577,591.08768 c -0.38468,-0.62242 -0.0737,-1.49751 0.69098,-1.94465 0.76472,-0.44714 4.75702,-3.28348 8.87177,-6.30298 6.93994,-5.09269 8.93523,-5.62335 9.00332,-2.39448 0.0668,3.16751 -17.10306,13.00931 -18.56607,10.64211 z"
         style="fill:#cc5250" />
      <path
         id="path6293"
         d="m 386.83181,591.2037 c -0.87049,-0.538 1.35844,-2.71384 7.05345,-6.88545 8.50154,-6.22739 9.47009,-6.71984 10.36589,-5.2704 0.82934,1.34189 -15.95975,13.05793 -17.41934,12.15585 z"
         style="fill:#c7504e" />
      <path
         id="path6291"
         d="m 386.32727,590.2677 c 0.97504,-1.57765 16.60598,-12.30558 17.14469,-11.76686 0.27505,0.27505 -3.23827,3.24061 -7.80736,6.59015 -7.87219,5.77098 -10.65975,7.31643 -9.33733,5.17671 z"
         style="fill:#c24e4c" />
      <path
         id="path6289"
         d="m 392.85715,585.84181 c 0,-0.20766 0.7875,-0.99516 1.75,-1.75 1.58606,-1.24388 1.62143,-1.20851 0.37755,0.37755 -1.30636,1.66575 -2.12755,2.19548 -2.12755,1.37245 z"
         style="fill:#bf4d4b" />
    </g>
  </g>
</svg>
